<svg id="Layer_1" data-name="Layer 1" xmlns="http://www.w3.org/2000/svg" viewBox="0 0 358.32 459.75"><defs><style>.cls-1{fill:#687672;}</style></defs><title>charlogo</title><path class="cls-1" d="M461.32,254.83c-.88,2.55-1.65,4.82-2.45,7.09-.58,1.66-1.21,3.3-1.81,5-.89,2.44-1.57,2.92-4.11,2.6-4.07-.52-8.13-1.12-12.19-1.69-1.49-.21-3-.49-4.47-.65-2.06-.23-2.69.21-3.31,2.2q-3.21,10.32-6.4,20.64-3.08,10-6.15,19.93-5.76,18.74-11.51,37.47c-2.37,7.69-4.78,15.36-7.15,23q-5,16.09-9.92,32.18c-2.45,7.92-4.94,15.84-7.38,23.76q-7.12,23-14.23,46.11c-2.47,8-5,16-7.46,24q-6.12,19.81-12.22,39.62-4.12,13.33-8.28,26.64c-.53,1.68-.74,1.89-2.56,1.5-4.18-.9-8.33-1.9-12.49-2.89q-8.07-1.92-16.13-3.89c-.71-.17-1.41-.41-2.37-.69.28-1.11.46-2.07.77-3,3.05-9.05,6.16-18.09,9.19-27.14,4.05-12.07,8-24.17,12.09-36.24q7.6-22.64,15.25-45.25l13.82-41,15.33-45.49,14.14-41.91q7.75-23,15.5-46c.62-1.82,1.38-3.6,1.94-5.44.5-1.66.21-2.08-1.56-2.32-7.54-1-15.09-2-22.64-3l-16.67-2.24c-.75-.1-1.5-.18-2.24-.23a3.83,3.83,0,0,0-3.63,1.8c-4,5.67-8,11.34-12.15,17-7.81,10.68-15.59,21.38-23.55,31.95-2.61,3.46-5.69,6.57-8.61,9.8-2.42,2.67-4.79,5.38-7.39,7.87-10.44,10-21.62,19-34.25,26.14a119.22,119.22,0,0,1-41.28,14.41c-2.64.4-5.33.47-8,.71a54,54,0,0,1-5.5.47,106.43,106.43,0,0,1-40.81-8.42,99.46,99.46,0,0,1-22.95-13.85c-8.8-7-16.09-15.42-21-25.65-4.06-8.52-6.4-17.61-8-26.9A130.54,130.54,0,0,1,125,268.24,113.14,113.14,0,0,1,142.3,211a89.17,89.17,0,0,1,10.8-14.47c2-2.05,3.8-4.24,5.8-6.26A132.3,132.3,0,0,1,185,169.94a162,162,0,0,1,20.81-10.59,83.49,83.49,0,0,1,17.9-4.91,84.86,84.86,0,0,1,21.29-.93,74.08,74.08,0,0,1,37.69,13.27,81.15,81.15,0,0,1,13.07,11.32A103.49,103.49,0,0,1,311,199.56c1.28,2.39,1.12,2.71-1.36,3.68q-12.17,4.75-24.37,9.46l-.48.16c-2.76.95-2.91.94-4.2-1.78a54,54,0,0,0-14.41-18.19,40.79,40.79,0,0,0-21.83-9.39c-9.18-1.1-17.82.75-26.31,3.9a83,83,0,0,0-26.12,15.24A98.91,98.91,0,0,0,163,247.49a85.17,85.17,0,0,0-4.31,20.62,115.56,115.56,0,0,0-.41,14.79c.8,12.39,4.37,23.89,12.5,33.57a44.8,44.8,0,0,0,18.78,13.07c9.34,3.55,19.08,4.4,28.94,3.8A125.56,125.56,0,0,0,245,328.68c5.13-1.44,9.7-4.13,14.19-6.91A150.86,150.86,0,0,0,280.28,306c6.8-6.07,13.47-12.32,19.85-18.83,5.44-5.55,10.4-11.56,15.55-17.39,9.49-10.74,18-22.26,26.73-33.6q16.1-20.89,32.46-41.57c6.14-7.72,12.6-15.2,19-22.71q5.78-6.78,11.83-13.32c5.27-5.72,10.44-11.57,16-17,9.77-9.41,19.85-18.49,31.37-25.79A81.51,81.51,0,0,1,474,106.09a49,49,0,0,1,6.64-1.37c2.53-.37,3.12.37,2.4,2.74-2.19,7.13-4.41,14.24-6.61,21.37q-5.88,19.09-11.75,38.19c-2.62,8.48-5.32,16.94-7.94,25.43q-6.82,22.09-13.6,44.2c-1.21,3.92-2.49,7.83-3.71,11.74-.74,2.38-.49,2.74,2,3.09,5.8.84,11.6,1.68,17.39,2.56A18.59,18.59,0,0,1,461.32,254.83ZM373.7,241.45a13.16,13.16,0,0,0,1.58.47q4.09.64,8.19,1.23c8.86,1.28,17.73,2.57,26.59,3.83,2.69.38,2.71.33,3.57-2.21Q419.33,228,425,211.2c4-12,8-24,12-36,2.61-7.78,5.29-15.55,7.93-23.32.25-.75.42-1.52.7-2.56C439.24,153.82,376.08,234.74,373.7,241.45Z" transform="translate(-125 -104.63)"/></svg>